<svg id="Capa_1" enable-background="new 0 0 512 512" height="512" viewBox="0 0 512 512" width="512" xmlns="http://www.w3.org/2000/svg"><g><path d="m330.252 96.212s110.754-37.078 181.748 33.915c0 0-29.418 70.056-87.598 70.056" fill="#934d36"/><path d="m365.682 135.355 58.72 64.829c58.174 0 87.596-70.052 87.596-70.052s-.01 0-.021-.01c-1.277-.464-66.024-23.921-117.049 3.441z" fill="#f1d0a5"/><path d="m373.964 17.834-5.068 103.924-72.864-19.285 11.888-23.478 35.119-69.351c3.482-6.882 11.311-10.395 18.77-8.416 7.458 1.978 12.526 8.89 12.155 16.606z" fill="#f6f1f1"/><path d="m361.808 1.228c-9.797-1.906-24.415 85.855-24.415 85.855l-29.473-8.087 35.119-69.351c3.481-6.882 11.311-10.395 18.769-8.417z" fill="#dfdfdf"/><path d="m181.748 96.217s-110.754-37.078-181.748 33.915c0 0 29.418 70.056 87.598 70.056" fill="#934d36"/><path d="m146.318 135.359-58.72 64.829c-58.174 0-87.596-70.052-87.596-70.052s.01 0 .021-.01c1.277-.464 66.024-23.921 117.049 3.441z" fill="#f1d0a5"/><path d="m215.966 102.484-72.854 19.275-.628-12.949-4.44-90.975c-.381-7.706 4.687-14.628 12.146-16.606 3.235-.855 6.552-.68 9.539.36 3.904 1.35 7.263 4.172 9.23 8.066z" fill="#f6f1f1"/><path d="m177.52 112.199-35.036-3.389-4.44-90.975c-.381-7.706 4.687-14.628 12.146-16.606 3.235-.855 6.552-.68 9.539.36-16.926-2.267 17.791 110.61 17.791 110.61z" fill="#dfdfdf"/><path d="m429.728 246.626c0 27.773-5.553 54.136-15.514 77.871-27.32 65.138-87.884 110.425-158.214 110.425-95.951 0-173.729-84.309-173.729-188.295 0-103.996 77.778-188.296 173.729-188.296 13.526 0 26.682 1.679 39.322 4.842 77.004 19.305 134.406 94.116 134.406 183.453z" fill="#aa593d"/><path d="m429.728 246.626c0 27.773-5.553 54.136-15.514 77.871l-97.62-97.619c-39.858-26.589-56.042-128.937-21.273-163.705 77.005 19.305 134.407 94.116 134.407 183.453z" fill="#f6f1f1"/><path d="m255.991 434.917c-95.94 0-173.719-84.309-173.719-188.295 0-103.996 77.778-188.296 173.719-188.296-41.248 0-74.688 84.299-74.688 188.296 0 103.986 33.44 188.295 74.688 188.295z" fill="#934d36"/><ellipse cx="255.999" cy="365.432" fill="#f1d0a5" rx="193.213" ry="145.888"/><path d="m254.718 511.305c-106.118-.516-191.932-65.623-191.932-145.873 0-80.261 85.814-145.368 191.932-145.883-53.847 1.01-97.28 65.931-97.28 145.883.001 79.941 43.433 144.863 97.28 145.873z" fill="#f1b986"/><g fill="#454045"><g><ellipse cx="154.68" cy="186.681" rx="19.613" ry="29.291"/><ellipse cx="357.317" cy="186.681" rx="19.613" ry="29.291"/></g><g><ellipse cx="202.557" cy="370.277" rx="21.925" ry="38.368"/><ellipse cx="309.441" cy="370.277" rx="21.925" ry="38.368"/></g></g></g></svg>