<?xml version="1.0" encoding="iso-8859-1"?>
<!-- Generator: Adobe Illustrator 19.0.0, SVG Export Plug-In . SVG Version: 6.00 Build 0)  -->
<svg version="1.1" id="Capa_1" xmlns="http://www.w3.org/2000/svg" xmlns:xlink="http://www.w3.org/1999/xlink" x="0px" y="0px"
	 viewBox="0 0 469.656 469.656" style="enable-background:new 0 0 469.656 469.656;" xml:space="preserve">
<path style="fill:#93CAE2;" d="M465.56,0c-2.667,2.224-5.333,4.432-8,6.624C329.01,111.765,170.615,173.755,4.848,183.8L1.56,184
	l88,88l40-104l96,72l32-112l104,72l8-128l96,48V0z"/>
<g>
	<path style="fill:#FBCC34;" d="M1.424,256c2.856,1.776,5.72,3.544,8.6,5.28c136.359,83.231,296.072,119.899,455.08,104.48
		l3.128-0.312L401.56,464l-56-96l-80,88l-40-104l-96,80l-24-120l-88,64L1.432,256"/>
	<circle style="fill:#FBCC34;" cx="409.56" cy="264" r="16"/>
</g>
<circle style="fill:#06AAE9;" cx="41.56" cy="432" r="16"/>
<circle style="fill:#ED1C24;" cx="105.56" cy="56" r="16"/>
<path style="fill:#FBCC34;" d="M3.904,77.657l11.314-11.314l15.998,15.998L19.902,93.655L3.904,77.657z"/>
<path style="fill:#FF1D25;" d="M321.56,24h16v24h-16V24z"/>
<path style="fill:#06AAE9;" d="M211.904,18.343l15.998-15.998l11.314,11.314l-15.998,15.998L211.904,18.343z"/>
<g>
	<path style="fill:#7AC943;" d="M139.908,122.338l15.998-15.998l11.314,11.314l-15.998,15.998L139.908,122.338z"/>
	<path style="fill:#7AC943;" d="M419.91,149.659l11.314-11.314l15.998,15.998l-11.314,11.314L419.91,149.659z"/>
</g>
<path style="fill:#FF1D25;" d="M281.56,216h16v24h-16V216z"/>
<path style="fill:#7AC943;" d="M323.909,314.331l15.998-15.998l11.314,11.314l-15.998,15.998L323.909,314.331z"/>
<path style="fill:#06AAE9;" d="M139.908,269.655l11.314-11.314l15.998,15.998l-11.314,11.314L139.908,269.655z"/>
<path style="fill:#7AC943;" d="M193.56,424h16v24h-16V424z"/>
<path style="fill:#06AAE9;" d="M67.865,381.659l11.314-11.314l15.998,15.998l-11.314,11.314L67.865,381.659z"/>
<path style="fill:#FF1D25;" d="M75.873,458.342l15.998-15.998l11.314,11.314l-15.998,15.998L75.873,458.342z"/>
<path style="fill:#06AAE9;" d="M323.908,450.338l15.998-15.998l11.314,11.314l-15.998,15.998L323.908,450.338z"/>
<g>
</g>
<g>
</g>
<g>
</g>
<g>
</g>
<g>
</g>
<g>
</g>
<g>
</g>
<g>
</g>
<g>
</g>
<g>
</g>
<g>
</g>
<g>
</g>
<g>
</g>
<g>
</g>
<g>
</g>
</svg>
